<svg width="960" height="824" viewBox="0 0 960 824" fill="none" xmlns="http://www.w3.org/2000/svg">
<path d="M39.0756 331.989L158.669 90.3405L172.4 60.8828L457.166 225.292L293.838 479.077C254.939 529.155 10.4094 375.259 39.0756 331.989Z" fill="#A6A6A6" stroke="black" stroke-width="1.75977"/>
<circle cx="321.36" cy="219.977" r="21.0245" transform="rotate(30 321.36 219.977)" fill="#E4E4E4"/>
<path d="M330.269 225.12C327.428 230.039 321.138 231.725 316.218 228.884C315.055 228.213 314.073 227.349 313.289 226.356C312.079 224.824 311.339 222.985 311.132 221.072C310.906 218.979 311.319 216.797 312.453 214.833C315.293 209.913 321.584 208.228 326.504 211.068C331.424 213.909 333.109 220.2 330.269 225.12Z" fill="#7A7474"/>
<path d="M77.4846 246.307C72.8348 243.623 64.9635 257.482 70.9846 259.261C77.0057 261.041 212.038 271.147 313.289 226.356C312.079 224.824 311.339 222.985 311.132 221.072C269.702 240.758 133.023 267.773 77.4846 246.307Z" fill="#494949"/>
<path d="M313.979 225.811C312.873 224.411 312.196 222.728 312.007 220.978C311.801 219.063 312.177 217.07 313.215 215.273C315.812 210.774 321.565 209.233 326.064 211.83C330.563 214.428 332.104 220.181 329.507 224.68C326.909 229.179 321.157 230.72 316.658 228.122C315.593 227.508 314.696 226.718 313.979 225.811ZM311.947 225.985C261.679 247.998 203.187 256.566 156.372 259.394C132.819 260.817 112.239 260.787 97.1753 260.29C89.6432 260.041 83.4931 259.676 79.0425 259.318C76.8167 259.139 75.0199 258.962 73.6902 258.803C72.3302 258.641 71.5263 258.504 71.234 258.417C70.6693 258.25 70.3135 257.961 70.0832 257.606C69.8434 257.235 69.7012 256.729 69.6858 256.088C69.6547 254.787 70.1506 253.126 71.0085 251.526C71.8628 249.932 73.0161 248.51 74.1802 247.659C75.3674 246.79 76.3325 246.658 77.0447 247.069L77.1038 247.103L77.1674 247.128C91.1986 252.551 110.279 254.89 131.589 255.068C152.915 255.247 176.547 253.263 199.722 249.993C245.275 243.566 289.192 232.154 310.452 222.362C310.733 223.641 311.236 224.87 311.947 225.985Z" stroke="black" stroke-width="1.75977"/>
<path d="M336.853 202.751C331.755 199.651 321.29 199.335 318.505 206.385C310.811 213.494 310.577 214.856 306.878 197.385C306.878 197.385 299.46 179.855 283.099 208.193C268.822 233.471 231.919 294.738 230.675 306.223C224.952 326.019 203.56 318.237 218.638 300.447C231.542 280.446 259.347 235.044 267.336 213.449C277.409 191.334 272.582 162.64 249.712 194.659C234.459 219.461 198.33 281.349 175.835 330.486C164.511 362.451 134.323 363.228 153.99 329.164C180.533 296.818 226.295 221.107 233.407 186.943C240.119 172.023 241.113 142.122 224.808 170.819C209.751 202.39 194.676 189.249 210.234 170.627C217.783 160.846 229.05 139.556 213.729 132.642C212.539 132.608 199.843 120.187 181.331 155.18C181.331 155.18 139.84 223.813 127.781 256.997C116.46 283.742 96.5128 277.577 113.73 251.69C130.947 225.804 167.003 162.896 174.626 140.084C180.725 121.836 177.127 110.836 174.566 107.617C172.288 103.408 165.369 99.7228 155.922 118.648C144.112 142.306 135.793 183.248 124.546 183.607C117.643 182.297 101.88 182.332 117.468 157.529C133.057 132.725 163.244 66.6237 165.141 51.0781C168.787 54.1724 172.386 57.2064 175.943 60.1826C181.927 65.1908 187.791 70.0354 193.554 74.7284C283.183 147.712 340.82 178.656 459.532 223.264C426.795 273.014 433.075 315.859 434.023 328.185C435.11 342.315 436.647 369.169 425.968 363.329C415.288 357.489 402.74 339.98 413.734 323.682C422.529 310.645 422.015 281.827 425.968 272.275C423.747 277.128 411.608 297.397 408.597 295.658C403.6 293.883 420.926 258.793 427.809 247.758C407.958 278.77 366.354 354.805 355.7 371.292C336.937 395.83 331.02 370.03 349.638 349.129C377.021 320.146 400.604 275.186 408.973 256.33C409.079 255.781 407.423 258.136 399.959 271.942C390.629 289.2 385.466 283.413 385.466 283.413C385.466 283.413 376.96 279.024 400.614 251.503C419.012 230.098 412.544 228.003 407.865 230.435C402.725 235.037 390.596 246.842 383.198 257.24C373.95 270.239 367.712 264.94 367.359 261.343C366.893 256.6 374.784 244.331 382.095 234.885C378.524 239.012 374.772 242.819 373.751 242.128C372.171 241.059 369.163 242.633 367.857 243.554C365.292 247.447 358.728 253.894 352.986 248.542C345.808 241.853 340.453 246.461 334.636 254.066C328.819 261.671 271.786 354.691 267.444 367.976C263.101 381.261 253.227 387.111 245.784 382.161C239.83 378.201 244.592 367.726 247.718 362.983C253.73 356.22 323.315 269.6 342.06 228.66C347.134 217.816 341.457 205.55 336.853 202.751Z" fill="url(#paint0_linear_447_6660)"/>
<path d="M318.505 206.385C321.29 199.335 331.755 199.651 336.853 202.751C341.457 205.55 347.134 217.816 342.06 228.66C323.315 269.6 253.73 356.22 247.718 362.983C244.592 367.726 239.83 378.201 245.784 382.161C253.227 387.111 263.101 381.261 267.444 367.976C271.786 354.691 328.819 261.671 334.636 254.066C340.453 246.461 345.808 241.853 352.986 248.542C358.728 253.894 365.292 247.447 367.857 243.554C369.163 242.633 372.171 241.059 373.751 242.128C375.331 243.197 383.46 233.486 387.326 228.496C379.248 237.732 366.777 255.415 367.359 261.343C367.712 264.94 373.95 270.239 383.198 257.24C390.596 246.842 402.725 235.037 407.865 230.435C412.544 228.003 419.012 230.098 400.614 251.503C376.96 279.024 385.466 283.413 385.466 283.413C385.466 283.413 390.629 289.2 399.959 271.942C407.423 258.136 409.079 255.781 408.973 256.33C400.604 275.186 377.021 320.146 349.638 349.129C331.02 370.03 336.937 395.83 355.7 371.292C366.354 354.805 407.958 278.77 427.809 247.758C420.926 258.793 403.6 293.883 408.597 295.658C411.608 297.397 423.747 277.128 425.968 272.275C422.015 281.827 422.529 310.645 413.734 323.682C402.74 339.98 415.288 357.489 425.968 363.329C436.647 369.169 435.11 342.315 434.023 328.185C433.075 315.859 426.795 273.014 459.532 223.264C340.82 178.656 283.183 147.712 193.554 74.7284C187.791 70.0354 181.927 65.1908 175.943 60.1826C172.386 57.2064 168.787 54.1724 165.141 51.0781C163.244 66.6237 133.057 132.725 117.468 157.529C101.88 182.332 117.643 182.297 124.546 183.607C135.793 183.248 144.112 142.306 155.922 118.648C165.369 99.7228 172.288 103.408 174.566 107.617C177.127 110.836 180.725 121.836 174.626 140.084C167.003 162.896 130.947 225.804 113.73 251.69C96.5128 277.577 116.46 283.742 127.781 256.997C139.84 223.813 181.331 155.18 181.331 155.18C199.843 120.187 212.539 132.608 213.729 132.642C229.05 139.556 217.783 160.846 210.234 170.627C194.676 189.249 209.751 202.39 224.808 170.819C241.113 142.122 240.119 172.023 233.407 186.943C226.295 221.107 180.533 296.818 153.99 329.164C134.323 363.228 164.511 362.451 175.835 330.486C198.33 281.349 234.459 219.461 249.712 194.659C272.582 162.64 277.409 191.334 267.336 213.449C259.347 235.044 231.542 280.446 218.638 300.447C203.56 318.237 224.952 326.019 230.675 306.223C231.919 294.738 268.822 233.471 283.099 208.193C299.46 179.855 306.878 197.385 306.878 197.385C310.577 214.856 310.811 213.494 318.505 206.385Z" stroke="black" stroke-width="1.75977" stroke-linecap="round"/>
<path fill-rule="evenodd" clip-rule="evenodd" d="M484.968 218.959C482.788 222.617 479.154 225.405 472.5 226.302C465.594 227.233 455.776 226.052 441.941 221.811C414.319 213.345 371.584 192.98 305.794 154.997C239.998 117.009 200.484 90.2619 179.135 70.6392C168.434 60.8043 162.503 52.9394 160.014 46.5515C158.783 43.3917 158.443 40.7136 158.688 38.4229C158.923 36.2313 159.712 34.2189 161.04 32.2718C167.764 24.766 179.281 20.7132 206.355 28.6748C233.433 36.6376 275.043 56.319 340.835 94.3043C406.644 132.299 445.261 158.106 466.132 177.418C476.577 187.082 482.393 194.957 485.023 201.722C487.559 208.245 487.129 213.703 484.968 218.959ZM315.338 138.467C395.331 184.65 464.059 215.368 468.846 207.076C473.634 198.783 415.746 149.291 335.753 103.107C255.76 56.9236 183.954 31.5371 179.167 39.8292C174.38 48.1213 235.345 92.2827 315.338 138.467Z" fill="#A8A8A8"/>
<path d="M468.846 207.076C464.059 215.368 395.331 184.65 315.338 138.467C235.345 92.2827 174.38 48.1213 179.167 39.8292C183.954 31.5371 255.76 56.9236 335.753 103.107C415.746 149.291 473.634 198.783 468.846 207.076Z" fill="#505050"/>
<path d="M485.724 219.409L485.757 219.353L485.782 219.293C488.023 213.842 488.466 208.15 485.843 201.403C483.143 194.457 477.215 186.474 466.73 176.772C445.777 157.385 407.08 131.535 341.275 93.5423C275.479 55.5548 233.791 35.8256 206.603 27.8307C193.009 23.833 183.226 22.8215 175.949 23.801C168.632 24.7859 163.883 27.7801 160.385 31.6846L160.346 31.7279L160.314 31.7759C158.914 33.8279 158.066 35.9763 157.813 38.3292C157.55 40.7836 157.921 43.604 159.194 46.8709C161.756 53.447 167.806 61.422 178.539 71.2871C199.967 90.9815 239.556 117.77 305.354 155.759C371.149 193.745 413.958 214.155 441.683 222.653C455.564 226.907 465.526 228.13 472.617 227.174C479.508 226.245 483.392 223.322 485.724 219.409Z" stroke="black" stroke-width="1.75977"/>
<path d="M60.1038 631.932C49.2336 631.932 40.3344 630.438 33.4061 627.451C26.4778 624.344 23.0137 619.683 23.0137 613.469C23.0137 608.45 23.5512 604.805 24.6263 602.535C25.8208 600.264 27.3737 599.129 29.285 599.129C30.7184 599.129 32.4505 599.965 34.4812 601.638C36.6313 603.192 39.1398 604.984 42.0067 607.016C44.993 609.047 48.2183 610.9 51.6824 612.573C55.266 614.126 59.208 614.903 63.5083 614.903C69.9587 614.903 74.3785 613.469 76.7676 610.601C79.2761 607.613 80.5303 604.447 80.5303 601.101C80.5303 597.755 79.7539 594.707 78.201 591.959C76.6481 589.21 73.7215 586.402 69.4212 583.534L55.4452 574.213C51.5032 571.584 47.6807 568.656 43.9777 565.43C40.3941 562.203 37.4078 558.499 35.0187 554.316C32.6296 550.134 31.4351 545.354 31.4351 539.976C31.4351 532.567 33.4658 526.234 37.5272 520.976C41.5886 515.718 47.2029 511.714 54.3701 508.966C61.6567 506.217 70.0185 504.843 79.4553 504.843C86.8613 504.843 92.7145 505.321 97.0149 506.277C101.435 507.114 104.6 508.488 106.511 510.4C108.423 512.192 109.378 514.523 109.378 517.391C109.378 520.737 108.841 523.844 107.766 526.712C106.691 529.58 105.257 531.014 103.465 531.014C102.271 531.014 100.837 530.476 99.165 529.4C97.4927 528.325 95.4022 527.249 92.8937 526.174C90.2657 524.979 87.4586 524.023 84.4723 523.306C81.6054 522.469 78.4399 522.051 74.9758 522.051C70.4365 522.051 66.9127 523.425 64.4042 526.174C62.0151 528.803 60.8206 531.97 60.8206 535.674C60.8206 538.303 61.597 540.813 63.1499 543.203C64.7028 545.593 67.5099 547.863 71.5713 550.014L84.4723 556.647C90.0866 559.515 94.9244 562.442 98.9858 565.43C103.047 568.298 106.213 571.823 108.482 576.006C110.752 580.188 111.887 585.625 111.887 592.317C111.887 604.984 107.228 614.784 97.9107 621.715C88.7129 628.526 76.1106 631.932 60.1038 631.932Z" fill="black"/>
<path d="M178.024 632.47C167.153 632.47 157.597 630.498 149.355 626.554C141.113 622.491 134.662 616.457 130.003 608.45C125.464 600.443 123.195 590.585 123.195 578.874C123.195 567.76 124.927 557.662 128.391 548.58C131.974 539.498 136.932 531.731 143.263 525.278C149.713 518.705 157.179 513.686 165.66 510.221C174.141 506.636 183.28 504.843 193.075 504.843C210.157 504.843 223.535 509.384 233.211 518.466C243.006 527.429 247.904 540.693 247.904 558.26C247.904 569.493 246.112 579.65 242.528 588.732C239.064 597.814 234.107 605.642 227.656 612.214C221.325 618.667 213.919 623.686 205.438 627.271C197.076 630.737 187.938 632.47 178.024 632.47ZM180.353 618.13C185.37 618.13 189.909 616.815 193.971 614.186C198.151 611.438 201.735 607.554 204.721 602.535C207.827 597.516 210.156 591.6 211.709 584.789C213.382 577.858 214.218 570.21 214.218 561.845C214.218 552.404 213.262 544.517 211.351 538.184C209.44 531.85 206.633 527.13 202.93 524.023C199.346 520.796 194.986 519.183 189.849 519.183C183.28 519.183 177.486 521.573 172.469 526.353C167.571 531.014 163.749 537.586 161.002 546.071C158.254 554.555 156.88 564.354 156.88 575.468C156.88 584.908 157.836 592.795 159.747 599.129C161.659 605.462 164.346 610.243 167.81 613.469C171.394 616.576 175.575 618.13 180.353 618.13Z" fill="black"/>
<path d="M265.822 631.753C263.671 631.753 261.999 630.438 260.805 627.809C259.73 625.18 259.192 622.252 259.192 619.026C259.192 614.365 259.73 606.777 260.805 596.261L270.48 505.022L288.398 504.843C293.296 504.724 296.342 505.859 297.536 508.249C298.85 510.639 299.089 515.598 298.253 523.127L290.011 598.053C289.772 600.563 289.653 603.192 289.653 605.94C289.772 608.569 290.011 611.139 290.369 613.648L324.234 605.94C326.384 605.462 328.534 604.984 330.685 604.506C332.954 603.909 334.507 603.61 335.343 603.61C337.374 603.61 338.389 605.223 338.389 608.45C338.389 610.601 337.792 613.35 336.598 616.696C335.522 620.042 333.97 623.029 331.939 625.658C330.028 628.287 327.758 629.602 325.13 629.602H317.067C308.108 629.602 300.164 629.781 293.236 630.139C286.308 630.498 280.514 630.856 275.856 631.215C271.316 631.573 267.972 631.753 265.822 631.753Z" fill="black"/>
<path d="M399.66 632.47C387.476 632.47 377.621 630.916 370.096 627.809C362.69 624.583 357.493 619.743 354.507 613.29C351.521 606.837 350.505 598.77 351.461 589.091L360.241 505.022H380.13C382.16 505.022 384.131 505.62 386.043 506.815C387.954 507.89 388.91 510.041 388.91 513.268C388.91 516.136 388.73 519.004 388.372 521.872C388.133 524.74 387.775 528.086 387.297 531.91C386.819 535.734 386.282 540.454 385.684 546.071L381.742 582.638C380.428 594.827 381.384 603.491 384.609 608.629C387.835 613.768 394.285 616.337 403.961 616.337C408.38 616.337 412.442 615.501 416.145 613.828C419.967 612.035 423.193 609.107 425.821 605.044C428.449 600.981 430.121 595.424 430.838 588.374L434.6 553.599C435.317 546.907 435.556 541.35 435.317 536.929C435.198 532.507 434.839 528.863 434.242 525.995C433.645 523.007 433.048 520.557 432.45 518.645C431.972 516.614 431.734 514.821 431.734 513.268C431.734 511.714 432.868 510.34 435.138 509.145C437.527 507.831 440.274 506.815 443.38 506.098C446.486 505.261 449.233 504.843 451.622 504.843C453.534 504.843 455.087 505.5 456.281 506.815C457.476 508.129 458.372 509.743 458.969 511.655C459.566 513.447 459.865 515.12 459.865 516.674C459.865 518.705 459.686 521.454 459.327 524.919C458.969 528.265 458.551 531.85 458.073 535.674L452.518 586.94C451.324 598.651 448.457 607.852 443.918 614.545C439.498 621.117 433.585 625.778 426.179 628.526C418.773 631.155 409.933 632.47 399.66 632.47Z" fill="black"/>
<path d="M500.683 631.036C498.174 631.036 496.263 629.721 494.949 627.092C493.635 624.344 492.978 621.356 492.978 618.13C492.978 614.903 493.157 611.318 493.516 607.374C493.993 603.311 494.65 597.814 495.486 590.883L503.012 524.561L484.019 529.4C482.586 529.759 480.913 530.177 479.002 530.655C477.21 531.014 475.717 531.193 474.522 531.193C473.328 531.193 472.253 530.715 471.297 529.759C470.342 528.683 469.924 526.771 470.043 524.023C470.162 521.633 470.581 519.183 471.297 516.674C472.133 514.164 473.149 512.073 474.343 510.4C475.538 508.607 476.792 507.711 478.106 507.711H520.392C529.59 507.711 537.176 507.532 543.148 507.173C549.121 506.815 553.78 506.516 557.124 506.277C560.469 505.919 562.798 505.739 564.112 505.739C565.307 505.739 566.143 505.978 566.621 506.456C567.099 506.934 567.397 507.89 567.517 509.324C567.636 511.714 567.218 514.463 566.262 517.57C565.307 520.677 564.112 523.425 562.679 525.815C561.245 528.086 559.872 529.221 558.558 529.221C557.602 529.221 555.81 528.922 553.182 528.325C550.674 527.727 547.867 527.19 544.761 526.712L532.756 524.561L520.93 631.036H500.683Z" fill="black"/>
<path d="M581.074 631.036C578.327 631.036 576.117 630.08 574.444 628.168C572.772 626.256 571.578 623.925 570.861 621.177C570.264 618.309 569.965 615.501 569.965 612.752C569.965 608.808 570.204 604.984 570.682 601.28C571.279 597.456 571.817 592.915 572.294 587.657L580.895 504.843H597.738C601.919 504.843 604.845 505.799 606.518 507.711C608.309 509.504 609.205 512.013 609.205 515.24C609.205 518.108 609.086 520.856 608.847 523.485C608.608 525.995 608.25 528.982 607.772 532.448C607.414 535.913 606.936 540.454 606.338 546.071L597.379 631.036H581.074Z" fill="black"/>
<path d="M674.617 632.47C663.747 632.47 654.191 630.498 645.948 626.554C637.706 622.491 631.256 616.457 626.597 608.45C622.058 600.443 619.788 590.585 619.788 578.874C619.788 567.76 621.52 557.662 624.984 548.58C628.568 539.498 633.525 531.731 639.856 525.278C646.307 518.705 653.773 513.686 662.254 510.221C670.735 506.636 679.873 504.843 689.668 504.843C706.75 504.843 720.129 509.384 729.804 518.466C739.6 527.429 744.497 540.693 744.497 558.26C744.497 569.493 742.705 579.65 739.122 588.732C735.658 597.814 730.7 605.642 724.25 612.214C717.919 618.667 710.513 623.686 702.032 627.271C693.67 630.737 684.532 632.47 674.617 632.47ZM676.946 618.13C681.963 618.13 686.503 616.815 690.564 614.186C694.745 611.438 698.329 607.554 701.315 602.535C704.421 597.516 706.75 591.6 708.303 584.789C709.975 577.858 710.811 570.21 710.811 561.845C710.811 552.404 709.856 544.517 707.944 538.184C706.033 531.85 703.226 527.13 699.523 524.023C695.939 520.796 691.579 519.183 686.443 519.183C679.873 519.183 674.08 521.573 669.063 526.353C664.165 531.014 660.342 537.586 657.595 546.071C654.848 554.555 653.474 564.354 653.474 575.468C653.474 584.908 654.43 592.795 656.341 599.129C658.252 605.462 660.94 610.243 664.404 613.469C667.987 616.576 672.168 618.13 676.946 618.13Z" fill="black"/>
<path d="M759.727 631.753C757.816 631.753 756.562 630.856 755.965 629.064C755.367 627.271 755.069 625.12 755.069 622.611C755.069 618.428 755.308 614.007 755.785 609.346C756.263 604.566 756.741 599.906 757.219 595.365L767.074 505.022L786.067 504.843C787.859 504.843 789.71 505.142 791.621 505.739C793.652 506.217 795.444 507.831 796.997 510.579C802.73 520.617 808.703 530.595 814.915 540.514C821.246 550.432 827.218 559.933 832.833 569.015C838.566 577.977 843.404 586.163 847.346 593.572L838.387 598.77L842.329 560.232C843.285 551.03 843.703 543.621 843.583 538.004C843.583 532.388 843.285 528.026 842.688 524.919C842.21 521.693 841.672 519.183 841.075 517.391C840.597 515.598 840.358 513.925 840.358 512.372C840.358 511.177 841.075 510.161 842.508 509.324C843.942 508.368 845.674 507.592 847.705 506.994C849.855 506.397 851.945 505.978 853.976 505.739C856.007 505.381 857.619 505.202 858.814 505.202C861.083 505.202 862.815 506.397 864.01 508.787C865.204 511.177 865.802 513.567 865.802 515.957C865.802 517.988 865.563 520.318 865.085 522.947C864.727 525.576 864.249 529.819 863.652 535.674L861.143 559.335C859.948 570.568 859.112 579.77 858.635 586.94C858.276 593.99 858.097 599.607 858.097 603.789C858.097 607.972 858.157 611.378 858.276 614.007C858.515 616.636 858.635 619.086 858.635 621.356C858.635 622.671 857.679 623.985 855.768 625.3C853.976 626.495 851.706 627.57 848.959 628.526C846.211 629.482 843.345 630.199 840.358 630.677C837.491 631.275 834.983 631.573 832.833 631.573C830.683 631.573 829.249 631.036 828.532 629.96C827.935 628.885 827.696 627.391 827.816 625.479C827.935 623.925 827.457 621.954 826.382 619.564C825.427 617.054 824.292 614.485 822.978 611.856C821.664 609.227 820.41 606.956 819.215 605.044C815.393 598.113 810.794 590.644 805.418 582.638C800.043 574.631 794.548 566.266 788.934 557.543C783.319 548.819 778.123 539.976 773.345 531.014L782.662 530.655L777.825 577.081C776.988 585.327 776.511 592.138 776.391 597.516C776.272 602.774 776.391 606.956 776.749 610.063C777.108 613.17 777.526 615.56 778.004 617.233C778.482 618.906 778.9 620.281 779.258 621.356C779.736 622.312 779.975 623.388 779.975 624.583C779.975 625.897 779.139 627.032 777.466 627.988C775.794 628.825 773.763 629.542 771.374 630.139C769.104 630.737 766.835 631.155 764.565 631.394C762.415 631.633 760.802 631.753 759.727 631.753Z" fill="black"/>
<path d="M907.532 631.932C896.662 631.932 887.763 630.438 880.835 627.451C873.906 624.344 870.442 619.683 870.442 613.469C870.442 608.45 870.98 604.805 872.055 602.535C873.249 600.264 874.802 599.129 876.713 599.129C878.147 599.129 879.879 599.965 881.91 601.638C884.06 603.192 886.568 604.984 889.435 607.016C892.422 609.047 895.647 610.9 899.111 612.573C902.695 614.126 906.636 614.903 910.937 614.903C917.387 614.903 921.807 613.469 924.196 610.601C926.705 607.613 927.959 604.447 927.959 601.101C927.959 597.755 927.182 594.707 925.629 591.959C924.077 589.21 921.15 586.402 916.85 583.534L902.874 574.213C898.932 571.584 895.109 568.656 891.406 565.43C887.823 562.203 884.836 558.499 882.447 554.316C880.058 550.134 878.864 545.354 878.864 539.976C878.864 532.567 880.894 526.234 884.956 520.976C889.017 515.718 894.631 511.714 901.799 508.966C909.085 506.217 917.447 504.843 926.884 504.843C934.29 504.843 940.143 505.321 944.443 506.277C948.863 507.114 952.029 508.488 953.94 510.4C955.851 512.192 956.807 514.523 956.807 517.391C956.807 520.737 956.269 523.844 955.194 526.712C954.119 529.58 952.686 531.014 950.894 531.014C949.699 531.014 948.266 530.476 946.594 529.4C944.921 528.325 942.831 527.249 940.322 526.174C937.694 524.979 934.887 524.023 931.901 523.306C929.034 522.469 925.868 522.051 922.404 522.051C917.865 522.051 914.341 523.425 911.833 526.174C909.444 528.803 908.249 531.97 908.249 535.674C908.249 538.303 909.026 540.813 910.578 543.203C912.131 545.593 914.938 547.863 919 550.014L931.901 556.647C937.515 559.515 942.353 562.442 946.414 565.43C950.476 568.298 953.641 571.823 955.911 576.006C958.18 580.188 959.315 585.625 959.315 592.317C959.315 604.984 954.657 614.784 945.339 621.715C936.141 628.526 923.539 631.932 907.532 631.932Z" fill="black"/>
<path d="M506.02 464.774C501.218 464.774 497.484 461.838 494.816 455.966C492.415 450.093 491.215 443.553 491.215 436.346C491.215 425.936 492.415 408.986 494.816 385.496L515.623 181.695H547.635C556.171 181.695 560.839 185.165 561.639 192.105C562.44 198.778 561.906 210.256 560.039 226.539L541.632 396.307C541.099 401.912 540.832 407.518 540.832 413.123C540.832 418.729 541.232 424.334 542.033 429.94L628.063 409.92C630.997 409.386 633.265 408.986 634.865 408.719C636.466 408.185 637.666 407.918 638.466 407.918C641.667 407.918 643.268 409.787 643.268 413.524C643.268 420.197 642.068 427.137 639.667 434.344C637.533 441.551 634.465 447.691 630.464 452.762C626.462 457.567 621.527 459.97 615.658 459.97H603.654C583.647 459.97 567.241 460.37 554.437 461.171C541.899 461.972 531.896 462.772 524.426 463.573C516.957 464.374 510.822 464.774 506.02 464.774Z" fill="black"/>
<path d="M679.359 464.774C675.091 464.774 672.29 462.772 670.956 458.768C669.622 454.764 668.955 449.96 668.955 444.354C668.955 435.012 669.489 425.135 670.556 414.725C671.623 404.048 672.69 393.637 673.757 383.494L695.765 181.695L728.976 181.294C739.913 181.027 747.383 181.828 751.384 183.697C755.652 185.298 758.453 188.768 759.787 194.107L819.008 410.721L798.2 409.92L890.633 208.521C894.101 201.047 900.503 194.774 909.839 189.703C919.176 184.364 930.513 181.695 943.851 181.695C949.187 181.695 953.188 183.029 955.856 185.699C958.79 188.101 959.857 192.906 959.057 200.113L931.847 463.173H899.836C896.368 463.173 893.7 461.037 891.833 456.766C889.966 452.495 889.032 446.49 889.032 438.749C889.032 427.804 889.299 415.926 889.832 403.113C890.633 390.301 891.7 378.022 893.034 366.277L907.839 239.752L910.24 241.354L857.821 354.265C847.151 377.221 838.481 395.506 831.812 409.119C825.143 422.466 819.675 432.476 815.406 439.149C811.405 445.822 807.937 450.227 805.003 452.362C802.068 454.231 799.001 455.165 795.8 455.165C792.332 455.165 789.397 454.497 786.996 453.163C784.862 451.561 783.128 448.358 781.795 443.553L722.174 239.352L725.775 238.951L714.571 342.654C712.17 363.741 711.103 380.558 711.37 393.103C711.637 405.649 712.437 415.392 713.771 422.332C715.371 429.006 716.839 434.211 718.172 437.948C719.506 441.685 720.173 445.155 720.173 448.358C720.173 451.294 718.573 453.83 715.371 455.966C712.17 457.834 708.169 459.436 703.367 460.77C698.566 462.105 693.897 463.039 689.362 463.573C685.094 464.374 681.76 464.774 679.359 464.774Z" fill="black"/>
<path d="M31.9962 760.329C30.6634 760.329 29.6268 759.515 28.8864 757.886C28.146 756.257 27.8128 754.369 27.8868 752.222C27.9609 749.704 28.183 746.705 28.5532 743.225C28.9234 739.745 29.2936 736.302 29.6638 732.896L32.7736 706.685C33.2179 703.353 33.329 700.392 33.1068 697.8C32.8847 695.209 32.5885 692.913 32.2183 690.914C31.8481 688.915 31.663 687.212 31.663 685.805C31.663 684.991 32.2924 684.287 33.5511 683.695C34.8839 683.029 36.4017 682.51 38.1047 682.14C39.8077 681.696 41.2515 681.474 42.4362 681.474C43.695 681.474 44.8056 682.399 45.7682 684.25C46.7307 686.027 47.212 688.101 47.212 690.47C47.212 690.988 47.1379 692.432 46.9899 694.801C46.8418 697.171 46.5456 699.873 46.1013 702.909L42.5473 728.454C41.8069 733.785 41.2886 739.116 40.9924 744.447C40.6962 749.704 40.289 754.998 39.7707 760.329H31.9962ZM57.7761 760.551C56.5174 760.551 55.7029 759.848 55.3327 758.441C54.9625 756.96 54.7774 755.442 54.7774 753.888C54.7774 751.222 54.8884 748.853 55.1106 746.779C55.4067 744.706 55.7029 742.411 55.9991 739.894L59.9974 704.242H67.7719C69.2527 704.242 70.2153 705.056 70.6595 706.685C71.1038 708.314 71.3259 710.165 71.3259 712.239C71.3259 713.275 71.2519 714.386 71.1038 715.57C70.9557 716.681 70.7336 718.421 70.4374 720.79L68.3272 738.894C67.8829 742.744 67.4757 745.965 67.1055 748.557C66.7353 751.148 66.4391 753.369 66.217 755.22C65.9948 757.071 65.7727 758.848 65.5506 760.551H57.7761ZM67.5497 697.911C65.4765 697.911 63.6625 697.208 62.1076 695.801C60.6267 694.394 59.8863 692.543 59.8863 690.248C59.8863 687.508 60.7748 685.398 62.5519 683.917C64.3289 682.362 66.3651 681.585 68.6604 681.585C70.8076 681.585 72.5846 682.214 73.9915 683.473C75.4723 684.732 76.2127 686.62 76.2127 689.137C76.2127 691.655 75.3612 693.765 73.6583 695.468C71.9553 697.097 69.9191 697.911 67.5497 697.911ZM90.2537 760.551C86.1073 760.551 83.1456 759.034 81.3685 755.998C79.5915 752.888 78.703 748.001 78.703 741.337C78.703 735.932 79.4434 730.971 80.9243 726.455C82.4792 721.938 84.6264 718.051 87.366 714.793C90.1056 711.461 93.2894 708.907 96.9175 707.13C100.546 705.279 104.47 704.353 108.69 704.353C111.282 704.353 114.021 704.797 116.909 705.686C119.871 706.5 122.277 707.352 124.128 708.24L120.574 720.235C118.575 718.532 116.502 717.125 114.355 716.015C112.207 714.904 110.134 714.09 108.135 713.571C106.21 712.979 104.507 712.683 103.026 712.683C100.879 712.683 98.9167 713.719 97.1397 715.793C95.3626 717.792 93.9188 720.605 92.8082 724.233C91.7716 727.788 91.2533 731.897 91.2533 736.562C91.2533 740.856 91.5494 744.114 92.1418 746.335C92.8082 748.557 93.8448 749.667 95.2516 749.667C95.918 749.667 97.0656 749.075 98.6946 747.89C100.323 746.705 102.249 744.743 104.47 742.004C106.691 739.264 109.061 735.673 111.578 731.231C114.169 726.714 116.761 721.198 119.352 714.682L122.684 724.567C118.834 733.452 115.021 740.523 111.245 745.78C107.469 751.037 103.804 754.813 100.249 757.108C96.7694 759.404 93.4375 760.551 90.2537 760.551ZM118.02 783.097C117.131 783.097 116.28 782.616 115.465 781.654C114.725 780.765 114.095 779.543 113.577 777.989C113.133 776.434 112.911 774.731 112.911 772.88C112.911 770.51 113.022 768.289 113.244 766.216C113.466 764.217 113.762 762.143 114.132 759.996L120.463 724.011L117.687 721.346L118.353 707.352C123.092 706.759 126.535 706.13 128.682 705.464C130.903 704.797 132.421 704.464 133.236 704.464C133.976 704.464 134.346 704.908 134.346 705.797C134.346 706.167 133.939 707.722 133.124 710.462C132.31 713.201 131.421 716.718 130.459 721.013C129.496 725.307 128.793 730.12 128.349 735.451L127.016 752.555C126.646 757.294 126.387 762.217 126.238 767.326C126.164 772.509 126.016 777.766 125.794 783.097H118.02ZM149.577 760.218C146.689 760.218 144.431 759.441 142.802 757.886C141.247 756.257 140.469 753.851 140.469 750.667C140.469 749.556 140.469 748.445 140.469 747.335C140.543 746.224 140.655 744.891 140.803 743.336C141.025 741.782 141.284 739.782 141.58 737.339L145.8 704.242H153.575C154.834 704.242 155.648 704.982 156.018 706.463C156.463 707.87 156.685 709.61 156.685 711.683C156.685 713.238 156.574 715.274 156.352 717.792C156.129 720.309 155.796 723.086 155.352 726.122L154.019 735.229C153.723 737.302 153.501 739.153 153.353 740.782C153.279 742.411 153.242 743.744 153.242 744.78C153.242 746.261 153.39 747.409 153.686 748.223C154.056 748.964 154.723 749.334 155.685 749.334C156.796 749.334 158.203 748.519 159.906 746.891C161.609 745.262 163.386 743.114 165.237 740.449C167.162 737.783 168.939 734.933 170.568 731.897C172.197 728.787 173.53 725.788 174.566 722.901C175.603 720.013 176.121 717.533 176.121 715.459C176.121 713.756 175.899 712.35 175.455 711.239C175.084 710.054 174.936 709.092 175.01 708.351C175.01 707.685 175.418 707.093 176.232 706.574C177.121 706.056 178.157 705.649 179.342 705.353C180.527 704.982 181.711 704.723 182.896 704.575C184.081 704.353 185.006 704.242 185.673 704.242C186.931 704.242 187.894 704.982 188.56 706.463C189.301 707.944 189.523 710.054 189.227 712.794L184.007 759.885H176.232C175.344 759.885 174.64 759.441 174.122 758.552C173.604 757.59 173.233 756.516 173.011 755.331C172.863 754.147 172.789 753.258 172.789 752.666C172.789 750.963 173.011 749.112 173.455 747.113C173.974 745.114 174.677 742.559 175.566 739.449C176.528 736.339 177.676 732.341 179.009 727.454V729.342C176.121 736.895 172.937 742.929 169.457 747.446C165.977 751.962 162.534 755.22 159.128 757.22C155.722 759.219 152.538 760.218 149.577 760.218ZM201.595 760.551C200.337 760.551 199.522 759.848 199.152 758.441C198.782 756.96 198.597 755.442 198.597 753.888C198.597 751.222 198.708 748.853 198.93 746.779C199.226 744.706 199.522 742.411 199.818 739.894L203.817 704.242H211.591C213.072 704.242 214.035 705.056 214.479 706.685C214.923 708.314 215.145 710.165 215.145 712.239C215.145 713.275 215.071 714.386 214.923 715.57C214.775 716.681 214.553 718.421 214.257 720.79L212.147 738.894C211.702 742.744 211.295 745.965 210.925 748.557C210.555 751.148 210.258 753.369 210.036 755.22C209.814 757.071 209.592 758.848 209.37 760.551H201.595ZM211.369 697.911C209.296 697.911 207.482 697.208 205.927 695.801C204.446 694.394 203.706 692.543 203.706 690.248C203.706 687.508 204.594 685.398 206.371 683.917C208.148 682.362 210.184 681.585 212.48 681.585C214.627 681.585 216.404 682.214 217.811 683.473C219.292 684.732 220.032 686.62 220.032 689.137C220.032 691.655 219.181 693.765 217.478 695.468C215.775 697.097 213.738 697.911 211.369 697.911ZM233.74 760.551C229.742 760.551 226.854 758.922 225.077 755.665C223.374 752.407 222.522 747.631 222.522 741.337C222.522 735.932 223.263 730.971 224.744 726.455C226.299 721.938 228.446 718.051 231.185 714.793C233.925 711.461 237.109 708.907 240.737 707.13C244.365 705.279 248.289 704.353 252.51 704.353C255.101 704.353 257.656 704.797 260.173 705.686C262.765 706.5 264.986 707.352 266.837 708.24L263.283 719.125C261.284 717.792 259.174 716.644 256.952 715.682C254.805 714.719 252.806 713.979 250.955 713.46C249.178 712.942 247.808 712.683 246.845 712.683C244.698 712.683 242.736 713.719 240.959 715.793C239.182 717.792 237.738 720.605 236.628 724.233C235.591 727.788 235.073 731.897 235.073 736.562C235.073 740.856 235.369 744.114 235.961 746.335C236.628 748.557 237.664 749.667 239.071 749.667C240.256 749.667 242.07 748.594 244.513 746.446C247.031 744.225 249.918 740.56 253.176 735.451C256.508 730.342 259.988 723.419 263.616 714.682L266.837 724.567C262.913 733.452 259.025 740.523 255.175 745.78C251.325 751.037 247.586 754.813 243.958 757.108C240.404 759.404 236.998 760.551 233.74 760.551ZM263.061 759.885C262.246 759.885 261.543 759.441 260.951 758.552C260.358 757.59 259.914 756.442 259.618 755.109C259.322 753.777 259.174 752.555 259.174 751.444C259.174 749.593 259.47 747.483 260.062 745.114C260.728 742.744 261.543 739.745 262.505 736.117L264.727 727.788L261.506 724.233L262.728 712.572L264.283 710.684L265.171 681.474H273.834C274.945 681.474 275.833 681.955 276.5 682.918C277.24 683.88 277.758 685.028 278.054 686.361C278.425 687.619 278.61 688.841 278.61 690.026C278.61 690.766 278.573 691.618 278.499 692.58C278.425 693.469 278.277 694.727 278.054 696.356C277.832 697.911 277.499 700.096 277.055 702.909L273.39 728.454C272.871 732.008 272.427 735.636 272.057 739.338C271.687 743.04 271.391 746.631 271.168 750.111C271.02 753.591 270.909 756.849 270.835 759.885H263.061ZM358.454 760.551C355.048 760.551 352.419 759.33 350.568 756.886C348.717 754.443 347.791 751.185 347.791 747.113C347.717 745.928 347.643 744.706 347.569 743.448C347.569 742.189 347.68 740.005 347.903 736.895L345.237 736.784L344.793 724.122C344.719 722.938 344.534 721.605 344.237 720.124C344.015 718.569 343.719 717.125 343.349 715.793C342.979 714.386 342.608 713.312 342.238 712.572C341.72 711.461 341.276 710.721 340.905 710.35C340.535 709.906 340.35 709.388 340.35 708.796C340.35 708.203 340.757 707.648 341.572 707.13C342.386 706.611 343.423 706.13 344.682 705.686C345.94 705.241 347.236 704.908 348.569 704.686C349.902 704.39 351.086 704.242 352.123 704.242C353.234 704.242 354.233 704.908 355.122 706.241C356.01 707.5 356.64 710.313 357.01 714.682L359.786 744.003C359.934 745.632 360.268 746.965 360.786 748.001C361.304 748.964 361.971 749.445 362.785 749.445C365.006 749.445 366.894 748.112 368.449 745.447C370.078 742.781 371.3 739.338 372.115 735.118C372.929 730.897 373.336 726.418 373.336 721.679C373.336 718.643 372.929 716.385 372.115 714.904C371.374 713.423 371.004 712.202 371.004 711.239C371.004 710.573 371.448 709.832 372.337 709.018C373.225 708.203 374.299 707.426 375.557 706.685C376.816 705.945 378.075 705.353 379.334 704.908C380.666 704.464 381.703 704.242 382.443 704.242C383.48 704.242 384.406 704.575 385.22 705.241C386.035 705.834 386.442 707.204 386.442 709.351C386.442 716.903 385.553 723.826 383.776 730.12C382.073 736.339 379.778 741.745 376.89 746.335C374.077 750.852 371.041 754.369 367.783 756.886C364.599 759.33 361.489 760.551 358.454 760.551ZM328.911 760.551C325.06 760.551 322.284 759.108 320.581 756.22C318.952 753.332 317.841 749.075 317.249 743.448L315.25 722.012C315.102 720.309 314.842 718.606 314.472 716.903C314.102 715.126 313.658 713.719 313.139 712.683C312.621 711.646 312.177 710.943 311.807 710.573C311.436 710.128 311.251 709.61 311.251 709.018C311.251 708.425 311.659 707.87 312.473 707.352C313.288 706.759 314.324 706.241 315.583 705.797C316.842 705.279 318.137 704.908 319.47 704.686C320.803 704.39 321.988 704.242 323.024 704.242C323.987 704.242 324.875 704.945 325.69 706.352C326.504 707.759 327.097 710.536 327.467 714.682L329.91 739.782C330.206 742.744 330.651 745.114 331.243 746.891C331.835 748.594 332.798 749.445 334.131 749.445C335.241 749.445 336.611 748.668 338.24 747.113C339.943 745.484 341.461 742.818 342.794 739.116C344.126 735.414 344.793 730.416 344.793 724.122L349.457 733.119C348.717 740.153 347.236 745.669 345.015 749.667C342.794 753.665 340.239 756.479 337.351 758.108C334.464 759.737 331.65 760.551 328.911 760.551ZM401.428 760.551C397.282 760.551 394.32 758.885 392.543 755.554C390.766 752.148 389.878 747.409 389.878 741.337C389.878 735.932 390.655 730.971 392.21 726.455C393.839 721.938 396.023 718.051 398.763 714.793C401.503 711.461 404.686 708.907 408.314 707.13C411.943 705.279 415.793 704.353 419.865 704.353C423.049 704.353 425.937 704.797 428.528 705.686C431.194 706.5 433.452 707.352 435.303 708.24L432.082 719.902C430.083 718.569 427.825 717.347 425.307 716.237C422.864 715.126 420.569 714.275 418.421 713.682C416.348 713.016 414.793 712.683 413.757 712.683C411.683 712.683 409.758 713.719 407.981 715.793C406.278 717.792 404.909 720.605 403.872 724.233C402.909 727.788 402.428 731.897 402.428 736.562C402.428 740.856 402.724 744.114 403.317 746.335C403.983 748.557 405.02 749.667 406.426 749.667C407.389 749.667 409.018 748.594 411.313 746.446C413.609 744.225 416.385 740.56 419.643 735.451C422.901 730.342 426.344 723.419 429.972 714.682L433.082 724.567C429.083 733.452 425.27 740.523 421.642 745.78C418.014 751.037 414.534 754.813 411.202 757.108C407.87 759.404 404.612 760.551 401.428 760.551ZM427.973 759.885C426.492 759.885 425.603 759.182 425.307 757.775C425.011 756.294 424.863 754.739 424.863 753.11C424.863 751.851 425.011 750.297 425.307 748.445C425.677 746.594 426.122 744.595 426.64 742.448C427.158 740.301 427.714 738.191 428.306 736.117L430.749 727.788L427.529 724.9L430.194 708.129C432.563 707.759 434.637 707.278 436.414 706.685C438.265 706.093 439.783 705.575 440.967 705.13C442.226 704.686 443.115 704.464 443.633 704.464C444.447 704.464 444.855 704.908 444.855 705.797C444.855 706.167 444.373 707.759 443.411 710.573C442.522 713.312 441.523 716.829 440.412 721.124C439.375 725.418 438.598 730.083 438.08 735.118L435.747 759.885H427.973ZM461.201 760.551C457.647 760.551 455.129 759.515 453.649 757.442C452.242 755.368 451.798 752.111 452.316 747.668L456.647 713.793H453.093C451.983 713.793 451.427 713.201 451.427 712.016C451.427 711.276 451.909 710.202 452.871 708.796C453.908 707.389 455.204 705.834 456.758 704.131C458.313 702.428 459.905 700.799 461.534 699.244C463.237 697.689 464.792 696.43 466.199 695.468C467.606 694.431 468.679 693.913 469.42 693.913C470.234 693.913 470.79 694.246 471.086 694.913C471.382 695.505 471.456 696.282 471.308 697.245L470.308 706.019H482.747C483.858 706.019 484.487 706.204 484.635 706.574C484.858 706.944 484.821 707.537 484.524 708.351C483.636 710.869 482.784 712.424 481.97 713.016C481.23 713.534 479.823 713.793 477.75 713.793H468.864L466.088 737.561C465.94 738.968 465.792 740.301 465.644 741.559C465.569 742.818 465.532 743.966 465.532 745.002C465.532 746.705 465.94 747.927 466.754 748.668C467.569 749.334 468.901 749.667 470.752 749.667C472.53 749.667 474.047 749.297 475.306 748.557C476.639 747.816 477.564 747.446 478.083 747.446C478.675 747.446 478.971 747.816 478.971 748.557C478.971 749.297 478.564 750.334 477.75 751.666C477.009 752.999 475.861 754.369 474.307 755.776C472.826 757.108 470.975 758.219 468.753 759.108C466.532 760.07 464.015 760.551 461.201 760.551ZM502.327 760.551C496.625 760.551 492.22 758.774 489.11 755.22C486 751.592 484.445 746.631 484.445 740.338C484.445 735.081 485.186 730.268 486.667 725.899C488.148 721.531 490.221 717.718 492.886 714.46C495.552 711.202 498.662 708.684 502.216 706.907C505.844 705.13 509.768 704.242 513.989 704.242C519.023 704.242 522.874 705.316 525.539 707.463C528.205 709.61 529.538 712.683 529.538 716.681C529.538 720.753 528.168 724.308 525.428 727.343C522.763 730.379 518.875 732.971 513.766 735.118C508.731 737.265 502.697 739.079 495.663 740.56L494.219 733.896C498.291 733.378 502.031 732.489 505.437 731.231C508.843 729.972 511.582 728.306 513.655 726.233C515.729 724.085 516.765 721.568 516.765 718.68C516.765 716.681 516.358 715.163 515.543 714.127C514.803 713.09 513.433 712.572 511.434 712.572C508.398 712.572 505.807 713.682 503.66 715.904C501.586 718.125 499.994 721.013 498.884 724.567C497.847 728.121 497.329 731.897 497.329 735.895C497.329 741.3 498.143 744.928 499.772 746.779C501.475 748.557 503.956 749.445 507.214 749.445C510.62 749.445 513.581 748.927 516.099 747.89C518.69 746.779 520.912 745.632 522.763 744.447C523.355 744.077 523.873 743.781 524.317 743.559C524.762 743.336 525.132 743.225 525.428 743.225C525.798 743.225 526.095 743.374 526.317 743.67C526.539 743.966 526.65 744.299 526.65 744.669C526.65 746.002 526.057 747.557 524.873 749.334C523.688 751.111 521.985 752.851 519.764 754.554C517.617 756.257 515.062 757.664 512.1 758.774C509.139 759.959 505.881 760.551 502.327 760.551ZM547.683 756.109L545.018 739.338C547.758 732.23 550.534 726.085 553.348 720.902C556.235 715.645 559.16 711.572 562.122 708.684C565.084 705.797 568.082 704.353 571.118 704.353C572.821 704.353 574.043 704.908 574.783 706.019C575.524 707.056 575.894 708.388 575.894 710.017C575.894 711.498 575.709 712.942 575.338 714.349C575.042 715.682 574.561 716.792 573.895 717.681C573.302 718.569 572.562 719.013 571.673 719.013C570.859 719.013 569.933 718.754 568.897 718.236C567.934 717.718 566.601 717.459 564.898 717.459C563.788 717.459 562.381 718.606 560.678 720.902C558.975 723.197 557.198 726.27 555.347 730.12C553.57 733.896 551.978 738.079 550.571 742.67C549.164 747.187 548.202 751.666 547.683 756.109ZM538.354 760.329C537.392 760.329 536.651 760.144 536.133 759.774C535.689 759.478 535.429 758.626 535.355 757.22C535.355 755.813 535.54 753.554 535.911 750.445L541.131 704.242H548.905C550.016 704.242 551.015 705.056 551.904 706.685C552.792 708.314 553.237 710.165 553.237 712.239C553.237 713.201 552.941 714.719 552.348 716.792C551.83 718.791 551.201 720.939 550.46 723.234C549.72 725.455 549.053 727.417 548.461 729.12L545.573 738.228L549.683 737.561L547.683 756.109C547.609 756.849 547.165 757.516 546.351 758.108C545.536 758.626 544.574 759.034 543.463 759.33C542.426 759.7 541.427 759.959 540.464 760.107C539.502 760.255 538.798 760.329 538.354 760.329ZM601.41 760.551C598.226 760.551 595.301 760.107 592.636 759.219C590.044 758.404 587.823 757.553 585.972 756.664L589.526 745.78C591.525 747.113 593.598 748.26 595.746 749.223C597.967 750.185 600.04 750.926 601.965 751.444C603.89 751.962 605.445 752.222 606.63 752.222C608.925 752.222 610.998 751.222 612.849 749.223C614.701 747.15 616.144 744.299 617.181 740.671C618.292 737.043 618.847 732.933 618.847 728.343C618.847 724.048 618.514 720.79 617.847 718.569C617.181 716.348 616.181 715.237 614.849 715.237C613.96 715.237 612.257 716.274 609.74 718.347C607.296 720.346 604.335 723.9 600.855 729.009C597.449 734.044 593.82 741.115 589.97 750.222L587.527 740.338C591.747 731.008 595.709 723.752 599.411 718.569C603.187 713.312 606.741 709.647 610.073 707.574C613.479 705.427 616.737 704.353 619.847 704.353C624.437 704.353 627.51 706.093 629.065 709.573C630.62 713.053 631.397 717.718 631.397 723.567C631.397 730.749 630.064 737.117 627.399 742.67C624.733 748.223 621.142 752.592 616.626 755.776C612.109 758.96 607.037 760.551 601.41 760.551ZM581.307 783.097C580.123 783.097 579.16 782.579 578.42 781.543C577.753 780.58 577.272 779.432 576.976 778.1C576.754 776.767 576.643 775.545 576.643 774.434C576.643 772.954 576.717 771.14 576.865 768.992C577.013 766.845 577.235 764.291 577.531 761.329L583.973 704.242H591.747C592.784 704.242 593.598 704.686 594.191 705.575C594.857 706.463 595.338 707.537 595.635 708.796C595.931 709.98 596.079 711.128 596.079 712.239C596.079 713.645 595.672 715.719 594.857 718.458C594.043 721.198 592.969 724.752 591.636 729.12L589.082 737.561H592.414L590.748 752.555L589.748 753.999L589.082 783.097H581.307ZM650.396 756.109L647.731 739.338C650.47 732.23 653.247 726.085 656.06 720.902C658.948 715.645 661.873 711.572 664.834 708.684C667.796 705.797 670.795 704.353 673.831 704.353C675.534 704.353 676.755 704.908 677.496 706.019C678.236 707.056 678.606 708.388 678.606 710.017C678.606 711.498 678.421 712.942 678.051 714.349C677.755 715.682 677.274 716.792 676.607 717.681C676.015 718.569 675.275 719.013 674.386 719.013C673.572 719.013 672.646 718.754 671.609 718.236C670.647 717.718 669.314 717.459 667.611 717.459C666.5 717.459 665.094 718.606 663.391 720.902C661.688 723.197 659.911 726.27 658.06 730.12C656.283 733.896 654.691 738.079 653.284 742.67C651.877 747.187 650.914 751.666 650.396 756.109ZM641.067 760.329C640.104 760.329 639.364 760.144 638.845 759.774C638.401 759.478 638.142 758.626 638.068 757.22C638.068 755.813 638.253 753.554 638.623 750.445L643.843 704.242H651.618C652.728 704.242 653.728 705.056 654.617 706.685C655.505 708.314 655.949 710.165 655.949 712.239C655.949 713.201 655.653 714.719 655.061 716.792C654.543 718.791 653.913 720.939 653.173 723.234C652.432 725.455 651.766 727.417 651.174 729.12L648.286 738.228L652.395 737.561L650.396 756.109C650.322 756.849 649.878 757.516 649.063 758.108C648.249 758.626 647.286 759.034 646.176 759.33C645.139 759.7 644.14 759.959 643.177 760.107C642.214 760.255 641.511 760.329 641.067 760.329ZM696.527 760.44C690.159 760.44 685.198 758.589 681.644 754.887C678.164 751.111 676.424 745.595 676.424 738.339C676.424 733.526 677.202 729.083 678.757 725.011C680.385 720.865 682.57 717.236 685.309 714.127C688.049 711.017 691.196 708.61 694.75 706.907C698.378 705.13 702.191 704.242 706.189 704.242C712.557 704.242 717.407 706.13 720.739 709.906C724.145 713.682 725.848 719.384 725.848 727.01C725.848 731.601 725.07 735.932 723.515 740.005C722.035 744.003 719.961 747.557 717.296 750.667C714.63 753.702 711.52 756.109 707.966 757.886C704.412 759.589 700.599 760.44 696.527 760.44ZM699.192 752.111C702.006 752.111 704.412 751.074 706.412 749.001C708.485 746.928 710.04 744.077 711.076 740.449C712.187 736.821 712.742 732.748 712.742 728.232C712.742 723.419 712.002 719.606 710.521 716.792C709.114 713.979 706.745 712.572 703.413 712.572C700.673 712.572 698.23 713.608 696.083 715.682C694.009 717.755 692.38 720.605 691.196 724.233C690.085 727.788 689.53 731.86 689.53 736.451C689.53 741.559 690.344 745.447 691.973 748.112C693.602 750.778 696.009 752.111 699.192 752.111ZM750.757 760.44C744.39 760.44 739.429 758.589 735.875 754.887C732.395 751.111 730.655 745.595 730.655 738.339C730.655 733.526 731.432 729.083 732.987 725.011C734.616 720.865 736.8 717.236 739.54 714.127C742.279 711.017 745.426 708.61 748.98 706.907C752.608 705.13 756.422 704.242 760.42 704.242C766.788 704.242 771.637 706.13 774.969 709.906C778.375 713.682 780.078 719.384 780.078 727.01C780.078 731.601 779.301 735.932 777.746 740.005C776.265 744.003 774.192 747.557 771.526 750.667C768.861 753.702 765.751 756.109 762.197 757.886C758.643 759.589 754.83 760.44 750.757 760.44ZM753.423 752.111C756.237 752.111 758.643 751.074 760.642 749.001C762.715 746.928 764.27 744.077 765.307 740.449C766.417 736.821 766.973 732.748 766.973 728.232C766.973 723.419 766.232 719.606 764.751 716.792C763.345 713.979 760.975 712.572 757.643 712.572C754.904 712.572 752.46 713.608 750.313 715.682C748.24 717.755 746.611 720.605 745.426 724.233C744.316 727.788 743.76 731.86 743.76 736.451C743.76 741.559 744.575 745.447 746.204 748.112C747.833 750.778 750.239 752.111 753.423 752.111ZM787.662 783.097C786.699 783.097 785.996 782.764 785.552 782.098C785.107 781.506 784.885 780.691 784.885 779.654C784.885 778.1 784.996 776.397 785.218 774.546L793.437 706.463C794.178 700.762 795.807 696.06 798.324 692.358C800.916 688.656 804.247 685.916 808.32 684.139C812.392 682.362 817.02 681.474 822.203 681.474C827.46 681.474 831.68 682.214 834.864 683.695C838.122 685.102 839.751 687.434 839.751 690.692C839.751 693.21 839.011 695.061 837.53 696.245C836.049 697.356 834.346 697.911 832.421 697.911C831.014 697.911 829.718 697.504 828.533 696.69C827.423 695.875 826.275 694.95 825.09 693.913C823.98 692.802 822.61 691.84 820.981 691.025C819.352 690.211 817.316 689.804 814.873 689.804C811.541 689.804 809.319 691.062 808.209 693.58C807.172 696.023 806.432 699.281 805.987 703.353L802.322 735.673C801.804 740.042 801.36 744.484 800.99 749.001C800.619 753.443 800.249 757.59 799.879 761.44C799.657 763.291 799.064 765.438 798.102 767.882C797.213 770.325 796.103 772.694 794.77 774.99C793.437 777.359 792.141 779.284 790.883 780.765C789.624 782.32 788.55 783.097 787.662 783.097ZM822.647 760.551C821.388 760.551 820.574 759.848 820.204 758.441C819.833 756.96 819.648 755.442 819.648 753.888C819.648 751.222 819.759 748.853 819.982 746.779C820.278 744.706 820.574 742.411 820.87 739.894C821.166 737.302 821.462 734.673 821.759 732.008C822.055 729.342 822.351 726.714 822.647 724.122C823.017 720.642 823.239 718.199 823.313 716.792C823.462 715.385 823.313 714.534 822.869 714.238C822.425 713.942 821.61 713.793 820.426 713.793L830.199 706.019C831.902 706.019 833.161 706.389 833.976 707.13C834.79 707.796 835.308 708.647 835.531 709.684C835.827 710.721 835.975 711.683 835.975 712.572C835.975 714.349 835.901 715.867 835.753 717.125C835.605 718.384 835.382 720.198 835.086 722.568L833.198 738.894C832.754 742.744 832.347 745.965 831.976 748.557C831.68 751.148 831.384 753.369 831.088 755.22C830.866 757.071 830.644 758.848 830.422 760.551H822.647ZM787.107 713.793C786.588 713.793 786.218 713.608 785.996 713.238C785.774 712.868 785.737 712.424 785.885 711.905L786.662 709.795C787.255 708.314 787.81 707.315 788.328 706.796C788.921 706.278 790.364 706.019 792.66 706.019H830.199L825.09 713.793H787.107ZM880.676 759.885C879.862 759.885 879.233 759.515 878.788 758.774C878.418 757.96 878.159 757.071 878.011 756.109C877.937 755.146 877.9 754.369 877.9 753.777C877.9 752.74 877.974 751.407 878.122 749.778C878.27 748.149 878.455 746.446 878.677 744.669C878.899 742.818 879.121 741.226 879.344 739.894L881.232 728.343C881.454 726.862 881.676 725.492 881.898 724.233C882.12 722.901 882.231 721.494 882.231 720.013C882.231 718.902 882.009 718.051 881.565 717.459C881.121 716.866 880.528 716.57 879.788 716.57C878.825 716.57 877.233 717.496 875.012 719.347C872.791 721.198 870.421 723.863 867.904 727.343C865.387 730.749 863.091 734.859 861.018 739.671C859.019 744.484 857.723 749.852 857.131 755.776L854.243 739.338C856.464 732.896 858.945 727.454 861.684 723.012C864.498 718.569 867.349 714.978 870.236 712.239C873.124 709.499 875.901 707.5 878.566 706.241C881.306 704.982 883.712 704.353 885.785 704.353C888.007 704.353 889.784 704.76 891.116 705.575C892.523 706.389 893.523 707.537 894.115 709.018C894.781 710.424 895.115 712.09 895.115 714.016C895.115 715.867 894.967 717.718 894.67 719.569C894.448 721.346 894.189 723.197 893.893 725.122L888.562 759.885H880.676ZM847.468 760.329C846.506 760.329 845.765 760.144 845.247 759.774C844.803 759.478 844.543 758.626 844.469 757.22C844.469 755.813 844.655 753.554 845.025 750.445L850.245 704.242H858.019C859.13 704.242 860.129 705.056 861.018 706.685C861.907 708.314 862.351 710.165 862.351 712.239C862.351 713.201 862.055 714.719 861.462 716.792C860.944 718.791 860.315 720.939 859.574 723.234C858.834 725.455 858.167 727.417 857.575 729.12L854.687 738.228L858.797 737.561L857.02 755.776C856.946 756.516 856.501 757.182 855.687 757.775C854.872 758.367 853.91 758.848 852.799 759.219C851.689 759.589 850.615 759.848 849.578 759.996C848.616 760.218 847.912 760.329 847.468 760.329ZM921.015 783.32C917.461 783.32 914.203 782.764 911.242 781.654C908.354 780.617 906.022 778.951 904.244 776.656C902.542 774.36 901.69 771.362 901.69 767.66C901.69 766.401 902.097 765.771 902.912 765.771C903.282 765.771 903.763 765.92 904.356 766.216C904.948 766.512 905.725 766.919 906.688 767.437C908.021 768.178 909.798 769.103 912.019 770.214C914.314 771.399 916.684 772.435 919.127 773.324C921.57 774.212 923.718 774.657 925.569 774.657C926.753 774.657 927.864 774.397 928.901 773.879C930.011 773.361 931.048 772.361 932.011 770.88C933.047 769.474 934.01 767.4 934.898 764.661C935.787 761.995 936.638 758.478 937.453 754.11L943.006 724.011L941.007 721.346L941.118 707.13C945.857 706.537 949.3 705.945 951.447 705.353C953.594 704.76 955.075 704.464 955.889 704.464C956.63 704.464 957 704.908 957 705.797C957 706.167 956.519 707.722 955.556 710.462C954.668 713.201 953.705 716.718 952.668 721.013C951.632 725.307 951.002 730.12 950.78 735.451L950.003 755.442C949.781 760.625 948.744 764.994 946.893 768.548C945.116 772.102 942.784 774.953 939.896 777.1C937.008 779.321 933.899 780.913 930.567 781.876C927.309 782.838 924.125 783.32 921.015 783.32ZM914.018 759.774C909.872 759.774 906.91 758.108 905.133 754.776C903.356 751.37 902.467 746.631 902.467 740.56C902.467 735.451 903.245 730.712 904.8 726.344C906.355 721.901 908.465 718.051 911.13 714.793C913.87 711.535 917.017 708.981 920.571 707.13C924.199 705.279 928.049 704.353 932.122 704.353C935.305 704.353 938.193 704.797 940.785 705.686C943.45 706.5 945.708 707.352 947.56 708.24L944.339 719.902C942.339 718.569 940.081 717.347 937.564 716.237C935.12 715.126 932.825 714.275 930.678 713.682C928.605 713.016 927.05 712.683 926.013 712.683C923.94 712.683 922.052 713.719 920.349 715.793C918.72 717.866 917.424 720.642 916.462 724.122C915.499 727.602 915.018 731.49 915.018 735.784C915.018 740.079 915.314 743.336 915.906 745.558C916.573 747.779 917.609 748.89 919.016 748.89C919.979 748.89 921.57 747.853 923.792 745.78C926.087 743.707 928.827 740.19 932.011 735.229C935.194 730.268 938.6 723.419 942.228 714.682L945.338 724.567C941.34 733.452 937.527 740.486 933.899 745.669C930.345 750.778 926.939 754.406 923.681 756.553C920.423 758.7 917.202 759.774 914.018 759.774Z" fill="black"/>
<defs>
<linearGradient id="paint0_linear_447_6660" x1="354.147" y1="89.1356" x2="237.617" y2="277.851" gradientUnits="userSpaceOnUse">
<stop stop-color="#878787"/>
<stop offset="1" stop-color="#565555"/>
</linearGradient>
</defs>
</svg>
